<svg width="44" height="37" viewBox="0 0 44 37" fill="none" xmlns="http://www.w3.org/2000/svg">
<path d="M3.01894 11.5726V19.6231C3.01894 20.0234 2.85991 20.4074 2.57683 20.6905C2.29375 20.9735 1.90981 21.1326 1.50947 21.1326C1.10913 21.1326 0.725194 20.9735 0.442113 20.6905C0.159033 20.4074 0 20.0234 0 19.6231V11.5726C0 11.1723 0.159033 10.7883 0.442113 10.5052C0.725194 10.2222 1.10913 10.0631 1.50947 10.0631C1.90981 10.0631 2.29375 10.2222 2.57683 10.5052C2.85991 10.7883 3.01894 11.1723 3.01894 11.5726ZM41.762 10.0631C41.3617 10.0631 40.9777 10.2222 40.6946 10.5052C40.4116 10.7883 40.2525 11.1723 40.2525 11.5726V19.6231C40.2525 20.0234 40.4116 20.4074 40.6946 20.6905C40.9777 20.9735 41.3617 21.1326 41.762 21.1326C42.1623 21.1326 42.5463 20.9735 42.8293 20.6905C43.1124 20.4074 43.2715 20.0234 43.2715 19.6231V11.5726C43.2715 11.1723 43.1124 10.7883 42.8293 10.5052C42.5463 10.2222 42.1623 10.0631 41.762 10.0631ZM7.54735 27.6736C7.54735 28.7412 7.97144 29.765 8.72632 30.5199C9.4812 31.2748 10.505 31.6989 11.5726 31.6989H16.5333C16.8647 31.6989 17.1909 31.7806 17.483 31.937C17.7752 32.0933 18.0242 32.3194 18.208 32.5951L20.7985 36.4809C20.8904 36.6187 21.0149 36.7317 21.1609 36.8098C21.307 36.888 21.4701 36.9289 21.6357 36.9289C21.8014 36.9289 21.9645 36.888 22.1105 36.8098C22.2566 36.7317 22.3811 36.6187 22.473 36.4809L25.0634 32.5951C25.2472 32.3194 25.4963 32.0933 25.7884 31.937C26.0806 31.7806 26.4068 31.6989 26.7381 31.6989H31.6989C32.7664 31.6989 33.7903 31.2748 34.5451 30.5199C35.3 29.765 35.7241 28.7412 35.7241 27.6736V23.6484H7.54735V27.6736ZM35.7241 9.55997V20.6294H7.54735V9.55997C7.54735 8.49241 7.97144 7.46857 8.72632 6.71369C9.4812 5.95881 10.505 5.53472 11.5726 5.53472H20.1263V1.50947C20.1263 1.10913 20.2853 0.725194 20.5684 0.442113C20.8515 0.159033 21.2354 0 21.6357 0C22.0361 0 22.42 0.159033 22.7031 0.442113C22.9862 0.725194 23.1452 1.10913 23.1452 1.50947V5.53472H31.6989C32.7664 5.53472 33.7903 5.95881 34.5451 6.71369C35.3 7.46857 35.7241 8.49241 35.7241 9.55997ZM17.6105 15.5979C17.6105 15.1998 17.4924 14.8107 17.2713 14.4797C17.0501 14.1487 16.7358 13.8908 16.3681 13.7384C16.0003 13.5861 15.5956 13.5462 15.2052 13.6239C14.8148 13.7016 14.4562 13.8932 14.1747 14.1747C13.8932 14.4562 13.7016 14.8148 13.6239 15.2052C13.5462 15.5956 13.5861 16.0003 13.7384 16.3681C13.8908 16.7358 14.1487 17.0501 14.4797 17.2713C14.8107 17.4924 15.1998 17.6105 15.5979 17.6105C16.1316 17.6105 16.6436 17.3984 17.021 17.021C17.3984 16.6436 17.6105 16.1316 17.6105 15.5979ZM29.6862 15.5979C29.6862 15.1998 29.5682 14.8107 29.347 14.4797C29.1259 14.1487 28.8116 13.8908 28.4438 13.7384C28.076 13.5861 27.6714 13.5462 27.281 13.6239C26.8906 13.7016 26.5319 13.8932 26.2505 14.1747C25.969 14.4562 25.7773 14.8148 25.6997 15.2052C25.622 15.5956 25.6619 16.0003 25.8142 16.3681C25.9665 16.7358 26.2245 17.0501 26.5555 17.2713C26.8864 17.4924 27.2755 17.6105 27.6736 17.6105C28.2074 17.6105 28.7193 17.3984 29.0968 17.021C29.4742 16.6436 29.6862 16.1316 29.6862 15.5979Z" fill="url(#paint0_linear_10187_33715)"/>
<defs>
<linearGradient id="paint0_linear_10187_33715" x1="0" y1="0" x2="36.4698" y2="42.7336" gradientUnits="userSpaceOnUse">
<stop stop-color="#FAB2FF"/>
<stop offset="1" stop-color="#1904E5"/>
</linearGradient>
</defs>
</svg>
