<svg width="111" height="37" viewBox="0 0 111 37" fill="none" xmlns="http://www.w3.org/2000/svg">
<path d="M3.01894 11.5726V19.6231C3.01894 20.0234 2.85991 20.4074 2.57683 20.6905C2.29375 20.9735 1.90981 21.1326 1.50947 21.1326C1.10913 21.1326 0.725194 20.9735 0.442113 20.6905C0.159033 20.4074 0 20.0234 0 19.6231V11.5726C0 11.1723 0.159033 10.7883 0.442113 10.5052C0.725194 10.2222 1.10913 10.0631 1.50947 10.0631C1.90981 10.0631 2.29375 10.2222 2.57683 10.5052C2.85991 10.7883 3.01894 11.1723 3.01894 11.5726ZM41.762 10.0631C41.3617 10.0631 40.9777 10.2222 40.6946 10.5052C40.4116 10.7883 40.2525 11.1723 40.2525 11.5726V19.6231C40.2525 20.0234 40.4116 20.4074 40.6946 20.6905C40.9777 20.9735 41.3617 21.1326 41.762 21.1326C42.1623 21.1326 42.5463 20.9735 42.8293 20.6905C43.1124 20.4074 43.2715 20.0234 43.2715 19.6231V11.5726C43.2715 11.1723 43.1124 10.7883 42.8293 10.5052C42.5463 10.2222 42.1623 10.0631 41.762 10.0631ZM7.54735 27.6736C7.54735 28.7412 7.97144 29.765 8.72632 30.5199C9.4812 31.2748 10.505 31.6989 11.5726 31.6989H16.5333C16.8647 31.6989 17.1909 31.7806 17.483 31.937C17.7752 32.0933 18.0242 32.3194 18.208 32.5951L20.7985 36.4809C20.8904 36.6187 21.0149 36.7317 21.1609 36.8098C21.307 36.888 21.4701 36.9289 21.6357 36.9289C21.8014 36.9289 21.9645 36.888 22.1105 36.8098C22.2566 36.7317 22.3811 36.6187 22.473 36.4809L25.0634 32.5951C25.2472 32.3194 25.4963 32.0933 25.7884 31.937C26.0806 31.7806 26.4068 31.6989 26.7381 31.6989H31.6989C32.7664 31.6989 33.7903 31.2748 34.5451 30.5199C35.3 29.765 35.7241 28.7412 35.7241 27.6736V23.6484H7.54735V27.6736ZM35.7241 9.55997V20.6294H7.54735V9.55997C7.54735 8.49241 7.97144 7.46857 8.72632 6.71369C9.4812 5.95881 10.505 5.53472 11.5726 5.53472H20.1263V1.50947C20.1263 1.10913 20.2853 0.725194 20.5684 0.442113C20.8515 0.159033 21.2354 0 21.6357 0C22.0361 0 22.42 0.159033 22.7031 0.442113C22.9862 0.725194 23.1452 1.10913 23.1452 1.50947V5.53472H31.6989C32.7664 5.53472 33.7903 5.95881 34.5451 6.71369C35.3 7.46857 35.7241 8.49241 35.7241 9.55997ZM17.6105 15.5979C17.6105 15.1998 17.4924 14.8107 17.2713 14.4797C17.0501 14.1487 16.7358 13.8908 16.3681 13.7384C16.0003 13.5861 15.5956 13.5462 15.2052 13.6239C14.8148 13.7016 14.4562 13.8932 14.1747 14.1747C13.8932 14.4562 13.7016 14.8148 13.6239 15.2052C13.5462 15.5956 13.5861 16.0003 13.7384 16.3681C13.8908 16.7358 14.1487 17.0501 14.4797 17.2713C14.8107 17.4924 15.1998 17.6105 15.5979 17.6105C16.1316 17.6105 16.6436 17.3984 17.021 17.021C17.3984 16.6436 17.6105 16.1316 17.6105 15.5979ZM29.6862 15.5979C29.6862 15.1998 29.5682 14.8107 29.347 14.4797C29.1259 14.1487 28.8116 13.8908 28.4438 13.7384C28.076 13.5861 27.6714 13.5462 27.281 13.6239C26.8906 13.7016 26.5319 13.8932 26.2505 14.1747C25.969 14.4562 25.7773 14.8148 25.6997 15.2052C25.622 15.5956 25.6619 16.0003 25.8142 16.3681C25.9665 16.7358 26.2245 17.0501 26.5555 17.2713C26.8864 17.4924 27.2755 17.6105 27.6736 17.6105C28.2074 17.6105 28.7193 17.3984 29.0968 17.021C29.4742 16.6436 29.6862 16.1316 29.6862 15.5979Z" fill="url(#paint0_linear_10187_32842)"/>
<path d="M57.6586 28.4648V11.6294H51.1373V8.819H67.7271V11.6294H61.2058V28.4648H57.6586ZM73.5337 28.7377C72.0602 28.7377 70.7596 28.4285 69.6318 27.81C68.5222 27.1915 67.6581 26.3365 67.0396 25.2451C66.4212 24.1355 66.1119 22.8712 66.1119 21.4524C66.1119 20.0335 66.4212 18.7874 67.0396 17.7142C67.6581 16.641 68.5222 15.8042 69.6318 15.2039C70.7596 14.5854 72.0602 14.2762 73.5337 14.2762C75.0253 14.2762 76.3259 14.5854 77.4356 15.2039C78.5452 15.8042 79.4092 16.641 80.0277 17.7142C80.6462 18.7874 80.9554 20.0335 80.9554 21.4524C80.9554 22.8712 80.6371 24.1355 80.0004 25.2451C79.382 26.3365 78.5179 27.1915 77.4083 27.81C76.2987 28.4285 75.0071 28.7377 73.5337 28.7377ZM73.5337 25.9818C74.2613 25.9818 74.9162 25.7999 75.4983 25.4361C76.0804 25.0541 76.5351 24.5266 76.8626 23.8535C77.19 23.1623 77.3537 22.3528 77.3537 21.4251C77.3537 20.0608 76.9899 18.9875 76.2623 18.2053C75.5528 17.4232 74.6433 17.0321 73.5337 17.0321C72.4241 17.0321 71.5054 17.4232 70.7778 18.2053C70.0502 18.9875 69.6864 20.0608 69.6864 21.4251C69.6864 22.3528 69.8501 23.1623 70.1775 23.8535C70.5231 24.5266 70.9779 25.0541 71.5418 25.4361C72.1239 25.7999 72.7879 25.9818 73.5337 25.9818ZM82.2724 28.4648V26.0364L90.2672 15.9406L91.0858 17.2503H82.518V14.549H93.6779V16.9775L85.8196 26.9368L85.0283 25.7635H93.8416V28.4648H82.2724ZM105.058 28.4648C104.967 28.101 104.894 27.7008 104.84 27.2643C104.803 26.8277 104.785 26.3002 104.785 25.6817H104.676V19.0785C104.676 18.3509 104.467 17.8052 104.048 17.4413C103.648 17.0593 103.03 16.8683 102.193 16.8683C101.374 16.8683 100.72 17.023 100.228 17.3322C99.7555 17.6232 99.4644 18.0507 99.3553 18.6146H96.0537C96.1992 17.3231 96.8177 16.2771 97.9092 15.4768C99.0006 14.6764 100.465 14.2762 102.302 14.2762C104.212 14.2762 105.658 14.7128 106.641 15.5859C107.623 16.4409 108.114 17.7051 108.114 19.3786V25.6817C108.114 26.1183 108.141 26.5639 108.196 27.0187C108.269 27.4735 108.369 27.9555 108.496 28.4648H105.058ZM100.228 28.7377C98.8278 28.7377 97.7091 28.3921 96.8723 27.7008C96.0537 26.9914 95.6444 26.0455 95.6444 24.8631C95.6444 23.5898 96.1083 22.5802 97.036 21.8344C97.9637 21.0886 99.2734 20.5883 100.965 20.3336L105.304 19.6788V21.8617L101.538 22.4347C100.72 22.562 100.101 22.7894 99.6827 23.1168C99.2825 23.4442 99.0824 23.899 99.0824 24.4811C99.0824 25.0086 99.2734 25.4179 99.6554 25.709C100.037 25.9818 100.565 26.1183 101.238 26.1183C102.22 26.1183 103.039 25.8727 103.694 25.3815C104.349 24.8904 104.676 24.2901 104.676 23.5807L105.058 25.6817C104.694 26.6822 104.094 27.4462 103.257 27.9737C102.439 28.483 101.429 28.7377 100.228 28.7377Z" fill="#0F1012"/>
<defs>
<linearGradient id="paint0_linear_10187_32842" x1="0" y1="0" x2="36.4698" y2="42.7336" gradientUnits="userSpaceOnUse">
<stop stop-color="#FAB2FF"/>
<stop offset="1" stop-color="#1904E5"/>
</linearGradient>
</defs>
</svg>
