<svg width="46" height="30" viewBox="0 0 46 30" fill="none" xmlns="http://www.w3.org/2000/svg">
<path d="M10.52 0.808594C5 0.808594 0.5 5.35359 0.5 10.9336C0.5 14.7286 2.555 18.1336 5.81 19.8736C5.645 21.6436 4.91 25.4086 1.895 26.2336C1.175 26.4286 0.71 27.1186 0.8 27.8536C0.89 28.5886 1.49 29.1586 2.24 29.1736H2.465C3.935 29.1736 12.005 28.8436 17.225 21.8386C20.615 17.2936 21.62 12.3586 20.075 8.00859C18.785 3.70359 14.945 0.808594 10.52 0.808594Z" fill="url(#paint0_linear_10641_685)"/>
<path d="M44.8104 8.02422C43.5204 3.71922 39.6804 0.824219 35.2554 0.824219C29.7354 0.824219 25.2354 5.36922 25.2354 10.9492C25.2354 14.7442 27.2904 18.1492 30.5454 19.8892C30.3804 21.6592 29.6454 25.4242 26.6304 26.2492C25.9104 26.4442 25.4454 27.1342 25.5354 27.8692C25.6254 28.6042 26.2254 29.1742 26.9754 29.1892H27.2004C28.6704 29.1892 36.7403 28.8592 41.9604 21.8542C45.3503 17.3092 46.3554 12.3742 44.8104 8.02422Z" fill="url(#paint1_linear_10641_685)"/>
<defs>
<linearGradient id="paint0_linear_10641_685" x1="0.5" y1="0.808594" x2="27.3408" y2="20.0004" gradientUnits="userSpaceOnUse">
<stop stop-color="#FAB2FF"/>
<stop offset="1" stop-color="#1904E5"/>
</linearGradient>
<linearGradient id="paint1_linear_10641_685" x1="25.2354" y1="0.824219" x2="52.0761" y2="20.0161" gradientUnits="userSpaceOnUse">
<stop stop-color="#FAB2FF"/>
<stop offset="1" stop-color="#1904E5"/>
</linearGradient>
</defs>
</svg>
