<svg width="13" height="13" viewBox="0 0 13 13" fill="none" xmlns="http://www.w3.org/2000/svg">
<g clip-path="url(#clip0_10223_13487)">
<path d="M11.3181 0.764648H10.171V1.91171C10.171 2.14112 9.97987 2.29406 9.7887 2.29406C9.59752 2.29406 9.40634 2.14112 9.40634 1.91171V0.764648H3.2887V1.91171C3.2887 2.14112 3.09752 2.29406 2.90634 2.29406C2.71517 2.29406 2.52399 2.14112 2.52399 1.91171V0.764648H1.37693C0.803401 0.764648 0.382812 1.26171 0.382812 1.91171V3.28818H12.6181V1.91171C12.6181 1.26171 11.9299 0.764648 11.3181 0.764648ZM0.382812 4.09112V11.0882C0.382812 11.7764 0.803401 12.2352 1.41517 12.2352H11.3563C11.9681 12.2352 12.6563 11.7382 12.6563 11.0882V4.09112H0.382812ZM3.78575 10.5146H2.86811C2.71517 10.5146 2.56222 10.3999 2.56222 10.2088V9.25288C2.56222 9.09994 2.67693 8.947 2.86811 8.947H3.82399C3.97693 8.947 4.12987 9.06171 4.12987 9.25288V10.2088C4.09164 10.3999 3.97693 10.5146 3.78575 10.5146ZM3.78575 7.07347H2.86811C2.71517 7.07347 2.56222 6.95877 2.56222 6.76759V5.81171C2.56222 5.65877 2.67693 5.50583 2.86811 5.50583H3.82399C3.97693 5.50583 4.12987 5.62053 4.12987 5.81171V6.76759C4.09164 6.95877 3.97693 7.07347 3.78575 7.07347ZM6.84458 10.5146H5.88869C5.73575 10.5146 5.58281 10.3999 5.58281 10.2088V9.25288C5.58281 9.09994 5.69752 8.947 5.88869 8.947H6.84458C6.99752 8.947 7.15046 9.06171 7.15046 9.25288V10.2088C7.15046 10.3999 7.03575 10.5146 6.84458 10.5146ZM6.84458 7.07347H5.88869C5.73575 7.07347 5.58281 6.95877 5.58281 6.76759V5.81171C5.58281 5.65877 5.69752 5.50583 5.88869 5.50583H6.84458C6.99752 5.50583 7.15046 5.62053 7.15046 5.81171V6.76759C7.15046 6.95877 7.03575 7.07347 6.84458 7.07347ZM9.9034 10.5146H8.94752C8.79458 10.5146 8.64164 10.3999 8.64164 10.2088V9.25288C8.64164 9.09994 8.75634 8.947 8.94752 8.947H9.9034C10.0563 8.947 10.2093 9.06171 10.2093 9.25288V10.2088C10.2093 10.3999 10.0946 10.5146 9.9034 10.5146ZM9.9034 7.07347H8.94752C8.79458 7.07347 8.64164 6.95877 8.64164 6.76759V5.81171C8.64164 5.65877 8.75634 5.50583 8.94752 5.50583H9.9034C10.0563 5.50583 10.2093 5.62053 10.2093 5.81171V6.76759C10.2093 6.95877 10.0946 7.07347 9.9034 7.07347Z" fill="url(#paint0_linear_10223_13487)"/>
</g>
<defs>
<linearGradient id="paint0_linear_10223_13487" x1="0.382812" y1="0.764648" x2="11.8272" y2="13.0101" gradientUnits="userSpaceOnUse">
<stop stop-color="#6B73FF"/>
<stop offset="1" stop-color="#000DFF"/>
</linearGradient>
<clipPath id="clip0_10223_13487">
<rect width="13" height="13" fill="white"/>
</clipPath>
</defs>
</svg>
