<svg width="23" height="24" viewBox="0 0 23 24" fill="none" xmlns="http://www.w3.org/2000/svg">
<rect y="0.778809" width="22.576" height="22.576" rx="1.61257" fill="url(#paint0_linear_9847_14)"/>
<path fill-rule="evenodd" clip-rule="evenodd" d="M13.9776 13.0767V11.0852C13.9776 11.0628 13.9591 11.0444 13.9364 11.0444H13.1663C12.9302 11.0444 12.737 10.8534 12.737 10.6199C12.737 10.3863 12.9302 10.1953 13.1663 10.1953H13.9364C13.9591 10.1953 13.9776 10.177 13.9776 10.1545V8.88977C13.9776 7.44435 12.7818 6.26172 11.3202 6.26172C9.85865 6.26172 8.66281 7.44435 8.66281 8.88977V10.1545C8.66281 10.177 8.68133 10.1953 8.70403 10.1953H9.47414C9.71028 10.1953 9.90344 10.3864 9.90344 10.6199C9.90344 10.8534 9.71025 11.0444 9.47414 11.0444H8.70403C8.68133 11.0444 8.66281 11.0628 8.66281 11.0852V13.0767C8.66281 13.0992 8.68133 13.1175 8.70403 13.1175H9.47414C9.71028 13.1175 9.90344 13.3086 9.90344 13.5421C9.90344 13.7756 9.71025 13.9666 9.47414 13.9666H8.70403C8.68133 13.9666 8.66281 13.985 8.66281 14.0074V15.2722C8.66281 16.7176 9.85865 17.9002 11.3202 17.9002C12.7818 17.9002 13.9776 16.7176 13.9776 15.2722V14.0074C13.9776 13.985 13.9591 13.9666 13.9364 13.9666H13.1663C12.9302 13.9666 12.737 13.7756 12.737 13.5421C12.737 13.3085 12.9302 13.1175 13.1663 13.1175H13.9364C13.9591 13.1175 13.9776 13.0992 13.9776 13.0767ZM15.5752 9.7342C15.5752 9.59351 15.6905 9.47946 15.8327 9.47946C15.975 9.47946 16.0903 9.59351 16.0903 9.7342V14.4278C16.0903 14.5684 15.975 14.6825 15.8327 14.6825C15.6905 14.6825 15.5752 14.5684 15.5752 14.4278V9.7342ZM6.55008 9.7342C6.55008 9.59351 6.6654 9.47946 6.80766 9.47946C6.94992 9.47946 7.06525 9.59351 7.06525 9.7342V14.4278C7.06525 14.5684 6.94992 14.6825 6.80766 14.6825C6.6654 14.6825 6.55008 14.5684 6.55008 14.4278V9.7342ZM3.2251 11.3907C3.2251 11.25 3.34042 11.136 3.48268 11.136C3.62494 11.136 3.74027 11.25 3.74027 11.3907V12.4951C3.74027 12.6358 3.62494 12.7498 3.48268 12.7498C3.34042 12.7498 3.2251 12.6358 3.2251 12.4951V11.3907ZM4.88759 10.772C4.88759 10.6314 5.00291 10.5173 5.14517 10.5173C5.28743 10.5173 5.40276 10.6314 5.40276 10.772V13.3899C5.40276 13.5306 5.28743 13.6447 5.14517 13.6447C5.00291 13.6447 4.88759 13.5306 4.88759 13.3899V10.772ZM18.9001 11.3907C18.9001 11.25 19.0155 11.136 19.1577 11.136C19.3 11.136 19.4153 11.25 19.4153 11.3907V12.4951C19.4153 12.6358 19.3 12.7498 19.1577 12.7498C19.0155 12.7498 18.9001 12.6358 18.9001 12.4951V11.3907ZM17.2376 10.772C17.2376 10.6314 17.353 10.5173 17.4952 10.5173C17.6375 10.5173 17.7528 10.6314 17.7528 10.772V13.3899C17.7528 13.5306 17.6375 13.6447 17.4952 13.6447C17.353 13.6447 17.2376 13.5306 17.2376 13.3899V10.772Z" fill="white"/>
<defs>
<linearGradient id="paint0_linear_9847_14" x1="0" y1="0.778809" x2="22.576" y2="23.3548" gradientUnits="userSpaceOnUse">
<stop stop-color="#6B73FF"/>
<stop offset="1" stop-color="#000DFF"/>
</linearGradient>
</defs>
</svg>
