<svg width="14" height="16" viewBox="0 0 14 16" fill="none" xmlns="http://www.w3.org/2000/svg">
<path d="M13.2733 15.6922C13.1033 15.7772 12.8983 15.7572 12.7484 15.6372L3.63982 8.63834C3.37985 8.45337 3.37985 8.03343 3.63982 7.84846L12.7484 0.849591C12.8983 0.734621 13.1033 0.709632 13.2733 0.794607C13.4432 0.879587 13.5532 1.05458 13.5532 1.24455V15.2423C13.5532 15.4323 13.4432 15.6072 13.2733 15.6922Z" fill="#808183"/>
<path d="M0.55648 15.7422C0.2804 15.7422 0.0565575 15.5184 0.0565575 15.2423V1.24455C0.0565575 0.968466 0.2804 0.744629 0.55648 0.744629C0.83256 0.744629 1.0564 0.968471 1.0564 1.24455V15.2423C1.0564 15.5184 0.83256 15.7422 0.55648 15.7422Z" fill="#808183"/>
</svg>
