<svg width="75" height="24" viewBox="0 0 75 24" fill="none" xmlns="http://www.w3.org/2000/svg">
<rect y="0.778809" width="22.576" height="22.576" rx="1.61257" fill="url(#paint0_linear_9847_13)"/>
<path fill-rule="evenodd" clip-rule="evenodd" d="M13.9776 13.0767V11.0852C13.9776 11.0628 13.9591 11.0444 13.9364 11.0444H13.1663C12.9302 11.0444 12.737 10.8534 12.737 10.6199C12.737 10.3863 12.9302 10.1953 13.1663 10.1953H13.9364C13.9591 10.1953 13.9776 10.177 13.9776 10.1545V8.88977C13.9776 7.44435 12.7818 6.26172 11.3202 6.26172C9.85865 6.26172 8.66281 7.44435 8.66281 8.88977V10.1545C8.66281 10.177 8.68133 10.1953 8.70403 10.1953H9.47414C9.71028 10.1953 9.90344 10.3864 9.90344 10.6199C9.90344 10.8534 9.71025 11.0444 9.47414 11.0444H8.70403C8.68133 11.0444 8.66281 11.0628 8.66281 11.0852V13.0767C8.66281 13.0992 8.68133 13.1175 8.70403 13.1175H9.47414C9.71028 13.1175 9.90344 13.3086 9.90344 13.5421C9.90344 13.7756 9.71025 13.9666 9.47414 13.9666H8.70403C8.68133 13.9666 8.66281 13.985 8.66281 14.0074V15.2722C8.66281 16.7176 9.85865 17.9002 11.3202 17.9002C12.7818 17.9002 13.9776 16.7176 13.9776 15.2722V14.0074C13.9776 13.985 13.9591 13.9666 13.9364 13.9666H13.1663C12.9302 13.9666 12.737 13.7756 12.737 13.5421C12.737 13.3085 12.9302 13.1175 13.1663 13.1175H13.9364C13.9591 13.1175 13.9776 13.0992 13.9776 13.0767ZM15.5752 9.7342C15.5752 9.59351 15.6905 9.47946 15.8327 9.47946C15.975 9.47946 16.0903 9.59351 16.0903 9.7342V14.4278C16.0903 14.5684 15.975 14.6825 15.8327 14.6825C15.6905 14.6825 15.5752 14.5684 15.5752 14.4278V9.7342ZM6.55008 9.7342C6.55008 9.59351 6.6654 9.47946 6.80766 9.47946C6.94992 9.47946 7.06525 9.59351 7.06525 9.7342V14.4278C7.06525 14.5684 6.94992 14.6825 6.80766 14.6825C6.6654 14.6825 6.55008 14.5684 6.55008 14.4278V9.7342ZM3.2251 11.3907C3.2251 11.25 3.34042 11.136 3.48268 11.136C3.62494 11.136 3.74027 11.25 3.74027 11.3907V12.4951C3.74027 12.6358 3.62494 12.7498 3.48268 12.7498C3.34042 12.7498 3.2251 12.6358 3.2251 12.4951V11.3907ZM4.88759 10.772C4.88759 10.6314 5.00291 10.5173 5.14517 10.5173C5.28743 10.5173 5.40276 10.6314 5.40276 10.772V13.3899C5.40276 13.5306 5.28743 13.6447 5.14517 13.6447C5.00291 13.6447 4.88759 13.5306 4.88759 13.3899V10.772ZM18.9001 11.3907C18.9001 11.25 19.0155 11.136 19.1577 11.136C19.3 11.136 19.4153 11.25 19.4153 11.3907V12.4951C19.4153 12.6358 19.3 12.7498 19.1577 12.7498C19.0155 12.7498 18.9001 12.6358 18.9001 12.4951V11.3907ZM17.2376 10.772C17.2376 10.6314 17.353 10.5173 17.4952 10.5173C17.6375 10.5173 17.7528 10.6314 17.7528 10.772V13.3899C17.7528 13.5306 17.6375 13.6447 17.4952 13.6447C17.353 13.6447 17.2376 13.5306 17.2376 13.3899V10.772Z" fill="white"/>
<path d="M34.5375 19.5669V6.83146H29.6043V4.70545H42.154V6.83146H37.2208V19.5669H34.5375ZM46.5465 19.7733C45.4318 19.7733 44.448 19.5394 43.5948 19.0715C42.7554 18.6037 42.1018 17.9569 41.6339 17.1313C41.1661 16.2919 40.9321 15.3355 40.9321 14.2622C40.9321 13.1889 41.1661 12.2463 41.6339 11.4344C42.1018 10.6225 42.7554 9.98952 43.5948 9.53542C44.448 9.06756 45.4318 8.83363 46.5465 8.83363C47.6748 8.83363 48.6587 9.06756 49.4981 9.53542C50.3375 9.98952 50.9911 10.6225 51.459 11.4344C51.9269 12.2463 52.1608 13.1889 52.1608 14.2622C52.1608 15.3355 51.92 16.2919 51.4383 17.1313C50.9705 17.9569 50.3169 18.6037 49.4775 19.0715C48.6381 19.5394 47.6611 19.7733 46.5465 19.7733ZM46.5465 17.6886C47.0969 17.6886 47.5923 17.551 48.0326 17.2758C48.4729 16.9868 48.817 16.5877 49.0646 16.0786C49.3123 15.5557 49.4362 14.9433 49.4362 14.2415C49.4362 13.2095 49.161 12.3976 48.6105 11.8059C48.0739 11.2142 47.3859 10.9184 46.5465 10.9184C45.7071 10.9184 45.0121 11.2142 44.4617 11.8059C43.9113 12.3976 43.6361 13.2095 43.6361 14.2415C43.6361 14.9433 43.7599 15.5557 44.0076 16.0786C44.2691 16.5877 44.6131 16.9868 45.0397 17.2758C45.48 17.551 45.9823 17.6886 46.5465 17.6886ZM53.157 19.5669V17.7299L59.2048 10.0927L59.824 11.0835H53.3428V9.04004H61.7849V10.8771L55.8403 18.411L55.2418 17.5234H61.9088V19.5669H53.157ZM70.3936 19.5669C70.3248 19.2917 70.2698 18.9889 70.2285 18.6587C70.201 18.3284 70.1872 17.9294 70.1872 17.4615H70.1047V12.4664C70.1047 11.916 69.9464 11.5032 69.6299 11.228C69.3272 10.939 68.8593 10.7945 68.2263 10.7945C67.6071 10.7945 67.1117 10.9115 66.7402 11.1454C66.3824 11.3656 66.1622 11.689 66.0797 12.1155H63.5821C63.6922 11.1385 64.1601 10.3473 64.9857 9.74183C65.8113 9.13636 66.9191 8.83363 68.3089 8.83363C69.7538 8.83363 70.8477 9.16388 71.5908 9.82439C72.3339 10.4711 72.7054 11.4275 72.7054 12.6935V17.4615C72.7054 17.7918 72.726 18.1289 72.7673 18.4729C72.8224 18.8169 72.8981 19.1816 72.9944 19.5669H70.3936ZM66.7402 19.7733C65.6806 19.7733 64.8343 19.5119 64.2014 18.9889C63.5821 18.4523 63.2725 17.7367 63.2725 16.8423C63.2725 15.8791 63.6234 15.1153 64.3252 14.5512C65.027 13.987 66.0178 13.6086 67.2975 13.4159L70.5794 12.9205V14.5718L67.7309 15.0053C67.1117 15.1016 66.6439 15.2736 66.3274 15.5213C66.0246 15.769 65.8733 16.113 65.8733 16.5533C65.8733 16.9524 66.0178 17.262 66.3067 17.4822C66.5957 17.6886 66.9948 17.7918 67.5039 17.7918C68.247 17.7918 68.8662 17.606 69.3616 17.2345C69.857 16.8629 70.1047 16.4088 70.1047 15.8722L70.3936 17.4615C70.1184 18.2184 69.6643 18.7963 69.0313 19.1954C68.4121 19.5807 67.6484 19.7733 66.7402 19.7733Z" fill="#0F1012"/>
<defs>
<linearGradient id="paint0_linear_9847_13" x1="0" y1="0.778809" x2="22.576" y2="23.3548" gradientUnits="userSpaceOnUse">
<stop stop-color="#6B73FF"/>
<stop offset="1" stop-color="#000DFF"/>
</linearGradient>
</defs>
</svg>
