<svg width="14" height="16" viewBox="0 0 14 16" fill="none" xmlns="http://www.w3.org/2000/svg">
<path d="M0.335616 15.6922C0.505603 15.7772 0.710555 15.7572 0.860527 15.6372L9.96907 8.63834C10.229 8.45337 10.229 8.03343 9.96907 7.84846L0.860527 0.849591C0.710555 0.734621 0.505603 0.709632 0.335616 0.794607C0.165661 0.879587 0.0556641 1.05458 0.0556641 1.24455V15.2423C0.0556641 15.4323 0.165661 15.6072 0.335616 15.6922Z" fill="#808183"/>
<path d="M13.0524 15.7422C13.3285 15.7422 13.5523 15.5184 13.5523 15.2423V1.24455C13.5523 0.968466 13.3285 0.744629 13.0524 0.744629C12.7763 0.744629 12.5525 0.968471 12.5525 1.24455V15.2423C12.5525 15.5184 12.7763 15.7422 13.0524 15.7422Z" fill="#808183"/>
</svg>
