<svg width="13" height="13" viewBox="0 0 13 13" fill="none" xmlns="http://www.w3.org/2000/svg">
<g clip-path="url(#clip0_10223_13469)">
<path d="M10.1401 0.691895H6.14865C5.89603 0.691895 5.65341 0.792467 5.47467 0.971211L0.279197 6.16573C-0.0930657 6.53799 -0.0930657 7.14143 0.279197 7.51417L4.27065 11.5056C4.64292 11.8779 5.24635 11.8779 5.61862 11.5056L10.8141 6.31111C10.9928 6.13189 11.0934 5.88927 11.0934 5.63617V1.64519C11.0934 1.1185 10.6668 0.691895 10.1401 0.691895ZM8.47184 4.02844C8.07717 4.02844 7.75686 3.70813 7.75686 3.31346C7.75686 2.9188 8.07717 2.59849 8.47184 2.59849C8.8665 2.59849 9.18681 2.9188 9.18681 3.31346C9.18681 3.70813 8.8665 4.02844 8.47184 4.02844Z" fill="url(#paint0_linear_10223_13469)"/>
<path d="M12.0464 1.64502L12.0459 6.08214C12.0459 6.30188 11.9587 6.51303 11.8028 6.66842L6.52344 11.9478L6.60447 12.0288C6.97673 12.4011 7.58017 12.4011 7.95243 12.0288L12.7199 7.26233C12.8991 7.08358 12.9997 6.84097 12.9997 6.58834V2.59832C12.9997 2.07162 12.5731 1.64502 12.0464 1.64502Z" fill="url(#paint1_linear_10223_13469)"/>
</g>
<defs>
<linearGradient id="paint0_linear_10223_13469" x1="0" y1="0.691895" x2="11.0929" y2="11.7853" gradientUnits="userSpaceOnUse">
<stop stop-color="#6B73FF"/>
<stop offset="1" stop-color="#000DFF"/>
</linearGradient>
<linearGradient id="paint1_linear_10223_13469" x1="6.52344" y1="1.64502" x2="15.9855" y2="7.39186" gradientUnits="userSpaceOnUse">
<stop stop-color="#6B73FF"/>
<stop offset="1" stop-color="#000DFF"/>
</linearGradient>
<clipPath id="clip0_10223_13469">
<rect width="13" height="13" fill="white"/>
</clipPath>
</defs>
</svg>
