<svg width="46" height="28" viewBox="0 0 46 28" fill="none" xmlns="http://www.w3.org/2000/svg">
<path d="M10.52 -0.191406C5 -0.191406 0.5 4.35359 0.5 9.93359C0.5 13.7286 2.555 17.1336 5.81 18.8736C5.645 20.6436 4.91 24.4086 1.895 25.2336C1.175 25.4286 0.71 26.1186 0.8 26.8536C0.89 27.5886 1.49 28.1586 2.24 28.1736H2.465C3.935 28.1736 12.005 27.8436 17.225 20.8386C20.615 16.2936 21.62 11.3586 20.075 7.00859C18.785 2.70359 14.945 -0.191406 10.52 -0.191406Z" fill="url(#paint0_linear_10758_646)"/>
<path d="M44.8104 7.02422C43.5204 2.71922 39.6804 -0.175781 35.2554 -0.175781C29.7354 -0.175781 25.2354 4.36922 25.2354 9.94922C25.2354 13.7442 27.2904 17.1492 30.5454 18.8892C30.3804 20.6592 29.6454 24.4242 26.6304 25.2492C25.9104 25.4442 25.4454 26.1342 25.5354 26.8692C25.6254 27.6042 26.2254 28.1742 26.9754 28.1892H27.2004C28.6704 28.1892 36.7403 27.8592 41.9604 20.8542C45.3503 16.3092 46.3554 11.3742 44.8104 7.02422Z" fill="url(#paint1_linear_10758_646)"/>
<defs>
<linearGradient id="paint0_linear_10758_646" x1="0.5" y1="-0.191406" x2="27.3408" y2="19.0004" gradientUnits="userSpaceOnUse">
<stop stop-color="#FDD819"/>
<stop offset="1" stop-color="#E80505"/>
</linearGradient>
<linearGradient id="paint1_linear_10758_646" x1="25.2354" y1="-0.175781" x2="52.0761" y2="19.0161" gradientUnits="userSpaceOnUse">
<stop stop-color="#FDD819"/>
<stop offset="1" stop-color="#E80505"/>
</linearGradient>
</defs>
</svg>
